<?xml version="1.0" encoding="UTF-8" standalone="no"?>
<!-- Created with Inkscape (http://www.inkscape.org/) -->

<svg
        xmlns:dc="http://purl.org/dc/elements/1.1/"
        xmlns:cc="http://creativecommons.org/ns#"
        xmlns:rdf="http://www.w3.org/1999/02/22-rdf-syntax-ns#"
        xmlns:sodipodi="http://sodipodi.sourceforge.net/DTD/sodipodi-0.dtd"
        xmlns:inkscape="http://www.inkscape.org/namespaces/inkscape"
        xmlns="http://www.w3.org/2000/svg"
        id="svg4190"
        version="1.1"
        inkscape:version="0.91 r13725"
        width="1037.7"
        height="1050.9"
        viewBox="0 0 1037.7 1050.9"
        sodipodi:docname="logo.svg">
    <metadata
            id="metadata4196">
        <rdf:RDF>
            <cc:Work
                    rdf:about="">
                <dc:format>image/svg+xml</dc:format>
                <dc:type
                        rdf:resource="http://purl.org/dc/dcmitype/StillImage"/>
                <dc:title></dc:title>
            </cc:Work>
        </rdf:RDF>
    </metadata>
    <defs
            id="defs4194"/>
    <sodipodi:namedview
            pagecolor="#ffffff"
            bordercolor="#666666"
            borderopacity="1"
            objecttolerance="10"
            gridtolerance="10"
            guidetolerance="10"
            inkscape:pageopacity="0"
            inkscape:pageshadow="2"
            inkscape:window-width="1920"
            inkscape:window-height="1080"
            id="namedview4192"
            showgrid="false"
            inkscape:zoom="0.85450564"
            inkscape:cx="518.84998"
            inkscape:cy="525.45001"
            inkscape:window-x="2048"
            inkscape:window-y="0"
            inkscape:window-maximized="0"
            inkscape:current-layer="svg4190"/>
    <path
            style="fill:#010101"
            d="m 480.18258,1050.272 c -4.85907,-1.6712 -8.98968,-6.1083 -13.01202,-13.9776 -2.10738,-4.1229 -4.305,-9.3795 -8.60151,-20.5745 -6.72999,-17.53557 -9.10803,-23.17506 -13.70862,-32.5095 -11.86305,-24.06987 -26.50878,-42.29244 -45.41043,-56.50086 -13.1403,-9.87762 -29.57571,-18.28893 -46.95,-24.02811 -23.97759,-7.92042 -53.71571,-12.26814 -84,-12.2808 -10.04071,-0.004 -15.80628,-0.70176 -19.09019,-2.30973 -6.67276,-3.26733 -2.46188,-10.09437 12.49663,-20.26062 29.04964,-19.743 99.63076,-51.40542 166.43992,-74.6643 30.91161,-10.76154 55.67889,-17.52675 69.81186,-19.06917 4.06701,-0.44385 4.72167,-0.45429 4.95909,-0.0791 0.37926,0.5994 0.35814,234.93617 -0.0219,243.06547 -0.3156,6.7507 -0.64071,10.1855 -1.38354,14.6168 -1.82454,10.8844 -6.00441,16.9513 -12.91986,18.7525 -2.48841,0.6481 -6.44109,0.5653 -8.60943,-0.1805 z m 68.20092,0.078 c -3.85536,-1.27 -6.90642,-3.7697 -8.94051,-7.325 -2.13648,-3.7341 -3.7419,-10.4472 -4.60965,-19.2751 -0.30417,-3.0945 -0.38334,-29.30547 -0.38334,-126.9 l 0,-123 2.4,0.0723 c 21.34392,0.64281 89.32884,23.15838 154.05,51.01899 43.9122,18.90297 76.86918,36.09915 91.37118,47.6754 3.6222,2.89143 7.23219,6.68376 8.18112,8.59434 1.81779,3.66003 0.31143,6.27423 -4.43475,7.69605 -3.40443,1.01991 -5.84058,1.21662 -18.46755,1.49124 -20.43324,0.44439 -32.76672,1.45785 -47.85,3.93195 -49.437,8.10909 -85.88121,28.41672 -110.55846,61.6059 -6.075,8.17044 -11.23398,16.80207 -16.65675,27.8688 -4.39644,8.97219 -6.82275,14.67441 -12.27357,28.84506 -5.31363,13.8139 -7.34307,18.7253 -9.58794,23.2036 -3.72708,7.435 -7.38627,11.753 -11.70267,13.8094 -2.12727,1.0135 -2.47896,1.0867 -5.57061,1.1589 -2.54997,0.06 -3.67875,-0.048 -4.9665,-0.4718 z M 3.9539529,985.125 C 2.9007427,982.30944 1.8284765,978.52758 0.99816171,974.7 0.24443386,971.22546 0.18340323,970.4211 0.16733844,963.75 c -0.0156266,-6.48915 0.050954,-7.49589 0.6743658,-10.19688 C 2.9715099,944.32557 6.1659441,938.51844 12.73821,931.92651 17.43626,927.21444 20.340271,925.21635 30.6,919.6368 125.5812,867.98319 207.24346,805.76301 270.77946,736.63905 311.79237,692.01906 346.27131,643.88025 374.23248,592.2 c 5.07381,-9.37785 16.26432,-31.83924 20.70069,-41.55 40.45839,-88.55928 63.30198,-185.95371 70.50492,-300.6 2.15811,-34.3496 3.13572,-75.39665 3.15528,-132.48102 0.007,-19.283598 0.19833,-26.039343 1.07184,-37.76898 2.23611,-30.026523 7.43955,-53.388105 14.7288,-66.127201 C 489.12444,5.4056718 495.12075,0.56462292 501.225,0.08447697 l 2.175,-0.17108004 0,366.58595307 c 0,292.81149 -0.0755,366.68304 -0.375,367.06836 -0.20625,0.26532 -5.235,2.53311 -11.175,5.03949 C 386.40159,783.10146 253.54366,848.03799 131.1,914.92983 88.751592,938.06505 48.324708,961.06767 12.938879,982.16268 8.7527619,984.6582 5.1512115,986.7 4.9354332,986.7 c -0.215778,0 -0.6574443,-0.70875 -0.9814803,-1.575 z M 1021.35,980.22339 C 991.69395,962.51691 954.55662,941.3286 916.64961,920.48769 791.81685,851.85582 654.85455,784.67955 546.31893,738.85065 c -5.86791,-2.4777 -10.97268,-4.69833 -11.34393,-4.9347 l -0.675,-0.42978 0,-366.7431 L 534.3,0 l 1.44555,0 c 4.68549,0 10.41897,3.573432 14.44023,9 9.24795,12.479736 15.31701,37.101468 17.8584,72.45 0.8649,12.030126 1.05447,20.5463 1.05852,47.55 0.005,36.82868 0.49713,66.64533 1.50375,91.2 2.02113,49.30144 6.34959,93.07152 13.36506,135.15 24.22044,145.27308 81.57471,267.54492 174.56505,372.15 17.74512,19.96158 40.58733,42.85917 61.81344,61.96335 52.27395,47.04828 115.46217,91.2435 184.2,128.83347 12.9899,7.10364 15.1477,8.51238 19.7642,12.90318 6.4536,6.13812 10.5599,13.58877 12.4832,22.65 0.8135,3.8325 1.1174,11.19027 0.6325,15.31329 -0.8538,7.26084 -3.6252,17.26962 -4.8299,17.44341 -0.2475,0.0357 -5.31,-2.8368 -11.25,-6.38331 z"
            id="path4200"
            inkscape:connector-curvature="0"/>
</svg>
